HIERARCHY
ROOT hip
{
	OFFSET 0.000000 0.000000 0.000000 
	CHANNELS 6 Xposition Yposition Zposition Xrotation Zrotation Yrotation
	JOINT abdomen
	{
		OFFSET 0.000000 3.402643 0.000000 
		CHANNELS 3 Xrotation Zrotation Yrotation
		JOINT chest
		{
			OFFSET 0.000000 8.438565 -0.680529 
			CHANNELS 3 Xrotation Zrotation Yrotation
			JOINT neck
			{
				OFFSET 0.000000 10.207942 -0.272212 
				CHANNELS 3 Xrotation Zrotation Yrotation
				JOINT head
				{
					OFFSET 0.000000 3.130431 0.000000 
					CHANNELS 3 Xrotation Zrotation Yrotation
					End Site
					{
						OFFSET 0.000000 3.130435 0.000000 
					}
				}
			}
			JOINT lCollar
			{
				OFFSET 3.470700 6.669187 -0.816635 
				CHANNELS 3 Yrotation Zrotation Xrotation
				JOINT lShldr
				{
					OFFSET 3.198488 0.000000 0.000000 
					CHANNELS 3 Zrotation Yrotation Xrotation
					JOINT lForeArm
					{
						OFFSET 10.139888 0.000000 0.000000 
						CHANNELS 3 Yrotation Zrotation Xrotation
						JOINT lHand
						{
							OFFSET 8.370511 0.000000 0.000000 
							CHANNELS 3 Zrotation Yrotation Xrotation
							End Site
							{
								OFFSET 4.083176 0.000000 0.000000 
							}
						}
					}
				}
			}
			JOINT rCollar
			{
				OFFSET -3.470700 6.669187 -0.816635 
				CHANNELS 3 Yrotation Zrotation Xrotation
				JOINT rShldr
				{
					OFFSET -3.198488 0.000000 0.000000 
					CHANNELS 3 Zrotation Yrotation Xrotation
					JOINT rForeArm
					{
						OFFSET -10.139888 0.000000 0.000000 
						CHANNELS 3 Yrotation Zrotation Xrotation
						JOINT rHand
						{
							OFFSET -8.370511 0.000000 0.000000 
							CHANNELS 3 Zrotation Yrotation Xrotation
							End Site
							{
								OFFSET -4.083176 0.000000 0.000000 
							}
						}
					}
				}
			}
		}
	}
	JOINT lThigh
	{
		OFFSET 5.308129 -1.633274 1.361059 
		CHANNELS 3 Xrotation Zrotation Yrotation
		JOINT lShin
		{
			OFFSET -2.041588 -20.007561 0.000000 
			CHANNELS 3 Xrotation Zrotation Yrotation
			JOINT lFoot
			{
				OFFSET 0.000000 -19.190928 -1.224953 
				CHANNELS 3 Xrotation Yrotation Zrotation
				End Site
				{
					OFFSET 0.000000 -2.449906 4.627600 
				}
			}
		}
	}
	JOINT rThigh
	{
		OFFSET -5.308129 -1.633274 1.361059 
		CHANNELS 3 Xrotation Zrotation Yrotation
		JOINT rShin
		{
			OFFSET 2.041588 -20.007561 0.000000 
			CHANNELS 3 Xrotation Zrotation Yrotation
			JOINT rFoot
			{
				OFFSET 0.000000 -19.190928 -1.224953 
				CHANNELS 3 Xrotation Yrotation Zrotation
				End Site
				{
					OFFSET 0.000000 -2.449906 4.627600 
				}
			}
		}
	}
}
MOTION
Frames: 15
Frame Time: 0.033333
-74.950554 48.427814 24.010290 -5.739923 -2.924741 100.918480 0.000000 0.000000 0.000000 -6.437795 3.493511 -4.182869 1.771602 1.613269 -7.319362 19.741901 3.823308 -4.647950 -5.791071 3.334348 -4.881316 -77.009636 52.938148 3.375933 -47.806477 -7.084851 10.918103 7.769740 13.898366 -2.927158 -2.000187 8.077196 -5.158980 68.365730 -44.289272 -7.497118 51.914463 5.453474 33.403790 -5.227808 -1.181557 -3.576219 0.926107 12.855715 7.803250 41.176826 2.531179 -17.366934 -8.905354 -0.243345 3.060217 -23.001911 -1.483956 -3.871223 23.859610 4.321500 -19.329128 -7.507155 -0.150921 2.201858 
-76.755882 48.234394 23.803528 -6.085968 -3.554126 100.984047 0.000000 0.000000 0.000000 -6.642437 3.375678 -4.367383 1.559592 1.581133 -7.428834 19.931835 4.108116 -4.606769 -6.033979 3.114415 -5.086652 -75.491928 51.062840 5.271956 -47.990536 -7.301793 12.195735 6.351352 13.763573 -3.061675 -2.200888 8.381124 -5.351521 67.374817 -42.672443 -7.306084 51.344475 5.537714 33.095772 -5.636292 -0.904761 -3.587545 6.210196 12.109221 7.962971 30.222078 2.427024 -18.485252 -18.673643 -0.489030 2.612596 -25.396975 -1.855471 -3.420505 22.888975 4.372698 -20.276146 -6.136313 -0.113689 1.868777 
-78.741432 48.110062 23.585947 -5.922909 -4.031171 101.687042 0.000000 0.000000 0.000000 -6.394357 2.795031 -4.902578 1.761207 1.329077 -7.886664 19.495697 4.421173 -4.471932 -6.666643 2.325888 -4.901838 -73.617195 47.363033 7.465520 -47.980053 -7.582852 13.451331 6.125029 13.826793 -3.079360 -2.748800 8.361475 -5.150606 66.400787 -39.753899 -6.928348 50.267120 5.538174 33.538849 -5.849704 -0.478316 -3.607084 11.770506 10.503863 8.282431 15.400724 1.460375 -15.546890 -23.495005 0.122517 -0.545544 -27.087191 -2.997821 -3.229210 21.061516 4.519552 -20.749025 -5.115272 -0.082010 1.356453 
-80.828545 48.021210 23.315510 -4.828582 -4.378996 101.931717 0.000000 0.000000 0.000000 -5.676139 1.632585 -5.074288 2.103590 0.841409 -8.118183 18.983364 4.207598 -4.190893 -7.231376 0.707749 -4.409391 -70.989929 42.084053 9.876350 -48.581203 -8.241101 11.604172 7.512751 13.714479 -2.957645 -2.888859 7.907306 -4.600643 65.906288 -36.136700 -7.050078 49.442898 5.465734 34.230679 -5.932791 0.044718 -3.629141 15.534001 7.889842 8.521327 3.003755 0.195544 -8.670864 -24.035559 0.640480 -3.132287 -28.229465 -5.077858 -3.400573 19.253464 5.016379 -19.881529 -5.358558 -0.044222 0.523119 
-82.938545 48.007500 23.105350 -3.624727 -4.551462 101.332809 0.000000 0.000000 0.000000 -4.716885 0.350372 -4.608987 2.422288 0.439304 -7.857513 18.853456 4.007489 -3.855763 -7.402802 -0.766415 -3.725246 -67.756668 35.607731 13.131576 -49.470768 -9.016466 12.073846 8.818774 13.147914 -2.867885 -2.561430 6.978108 -3.821470 66.552032 -32.475513 -7.545390 49.435757 5.295007 35.189533 -6.390649 -0.866178 -3.608832 7.435854 7.017700 8.021162 14.935549 -2.100671 -4.197571 -27.043234 0.501636 -2.197784 -28.851313 -6.521944 -3.180165 16.998829 4.997555 -19.989519 -8.368218 -0.003598 -0.291725 
-85.050079 47.987614 22.949808 -2.549132 -5.092638 101.134605 0.000000 0.000000 0.000000 -4.082553 -0.915640 -4.387783 2.528050 -0.287117 -7.820018 19.004522 4.322598 -3.669581 -7.485240 -2.200434 -3.327667 -64.366859 28.383429 15.940740 -50.910263 -9.859241 11.361665 9.314449 12.976612 -2.842834 -2.659749 5.461969 -3.315456 67.559883 -28.759491 -7.727165 49.925930 5.072544 36.014114 -6.099617 -0.837232 -3.602768 1.121039 6.153651 7.537787 22.126431 -3.313286 -3.098101 -28.081678 0.252553 -1.093711 -29.513035 -7.683314 -2.552852 14.449709 4.362511 -21.342678 -12.584575 0.074604 -0.757609 
-87.069084 48.056705 22.811005 -0.951085 -5.136015 101.764496 0.000000 0.000000 0.000000 -3.431305 -2.612502 -4.277168 3.763161 -1.172575 -8.292472 18.959383 5.216835 -3.920640 -8.273157 -3.431130 -2.983673 -62.178982 22.017225 16.889662 -51.279942 -9.965155 12.275975 9.437666 12.613136 -2.860624 -2.955680 3.232035 -2.802243 68.334816 -26.665098 -6.032837 49.847057 5.148208 35.498947 -5.082335 -0.262026 -3.593382 -2.821391 4.304965 6.571792 25.283144 -3.783600 -2.731562 -27.128874 0.007338 -0.086962 -28.595131 -9.518726 -2.618214 11.366837 3.847306 -23.281235 -13.894229 0.177629 -1.516411 
-88.857697 48.348408 22.684155 0.117596 -4.775381 101.551926 0.000000 0.000000 0.000000 -2.524791 -3.697589 -3.665534 4.459728 -2.001112 -8.216982 18.845192 6.468441 -4.360995 -8.025368 -4.922603 -2.300377 -59.445908 13.964790 17.483727 -50.699131 -10.389766 12.556372 9.715202 11.457607 -2.922204 -2.294542 2.613148 -1.999189 66.903191 -23.982359 -3.475190 49.742504 5.714921 34.259052 -5.446697 -0.217154 -3.603552 -4.622579 2.329794 5.517054 25.090923 -3.754575 -1.263467 -24.755032 -0.106986 0.476992 -26.402231 -10.760215 -3.885520 9.537596 4.470562 -24.951145 -11.399477 0.237176 -2.704262 
-90.304764 48.660122 22.585745 -0.929894 -3.905737 99.770233 0.000000 0.000000 0.000000 -2.092706 -2.996051 -2.058690 4.758242 -1.357222 -7.005863 19.168442 6.413779 -4.704699 -6.730212 -4.492420 -1.700197 -58.761776 6.539276 16.760475 -49.478161 -10.401494 12.514268 10.322892 10.423139 -2.952819 -0.546739 3.957876 -1.434611 64.716278 -22.553328 -1.629097 50.825497 5.901923 34.428349 -5.315561 -0.130345 -3.605753 -5.777680 2.800611 5.629217 25.022593 -3.725264 -0.231551 -22.993423 -0.213148 1.099017 -24.702614 -9.734527 -5.127075 12.029379 5.905845 -24.000759 -10.264626 0.229377 -2.905304 
-91.625366 48.906269 22.561083 -1.838585 -3.074591 98.174683 0.000000 0.000000 0.000000 -1.857113 -2.410844 -1.074266 4.888505 -0.828018 -6.023476 19.889929 5.670183 -4.524413 -5.724111 -3.415558 -1.336059 -59.819447 1.279594 14.574960 -48.969372 -9.529450 12.868157 11.326442 9.289645 -2.985145 0.808436 4.357887 -1.155237 63.948158 -21.309776 -0.564118 52.128632 5.540269 36.574623 -4.233955 0.066489 -3.583823 -6.655560 3.434423 5.878434 24.863480 -3.714596 1.629916 -21.371624 -0.214154 1.162676 -25.121178 -8.962401 -5.707004 20.613514 6.092666 -17.827553 -11.675354 0.305795 -3.226007 
-92.929474 49.117432 22.628157 -2.082964 -3.015588 97.707130 0.000000 0.000000 0.000000 -2.121237 -2.547084 -1.272969 4.744420 -1.037717 -5.653718 20.678360 5.348464 -3.896231 -5.537530 -3.070396 -1.572430 -61.029778 -2.003445 11.808262 -50.005600 -8.200422 11.908312 11.741871 9.182091 -2.973406 0.926541 3.240650 -1.407305 62.823151 -18.949825 2.365065 52.440029 5.880454 37.718929 -3.649728 0.406949 -3.569074 -8.046462 3.515591 5.765707 24.211645 -3.861364 2.534579 -19.386395 -0.236746 1.401918 -25.573900 -8.827142 -6.180891 29.210381 5.211250 -11.786148 -14.311058 0.766292 -6.425413 
-94.140976 49.273476 22.695984 -2.551330 -2.536549 98.237877 0.000000 0.000000 0.000000 -2.130823 -2.429961 -2.185087 4.734478 -1.089536 -5.855652 21.589424 4.806114 -3.228842 -6.049645 -2.721848 -1.604498 -62.309410 -4.608292 8.876814 -51.118759 -6.974676 10.105849 11.732816 8.907299 -2.998300 0.384348 2.900633 -1.469347 61.612213 -16.150885 4.370171 52.670876 6.231539 37.012844 -3.368402 -0.025412 -3.554523 -9.083628 3.969980 5.778812 23.867283 -3.958431 1.928566 -17.609562 -0.297384 1.983879 -24.157965 -8.651513 -7.142402 36.362877 4.412808 -8.900202 -17.644140 1.631433 -10.557283 
-95.311432 49.412029 22.845486 -2.863283 -2.116498 98.582329 0.000000 0.000000 0.000000 -2.170097 -2.537244 -2.706715 4.847612 -1.038210 -5.893246 22.067083 4.673239 -2.798331 -6.581069 -2.586954 -1.685028 -62.816456 -7.366895 6.605274 -51.745422 -6.182370 8.442848 11.091635 8.646426 -3.061883 -0.019628 3.091766 -1.547285 60.772530 -13.470919 5.069483 52.761616 6.176747 36.667381 -3.054551 -0.201393 -3.546935 -9.915521 4.420216 5.817421 23.247044 -4.105749 1.364614 -15.782071 -0.326219 2.445362 -22.390905 -8.700345 -7.937898 42.713779 3.212653 -8.397228 -17.868704 1.691761 -10.905322 
-96.411682 49.454563 22.980515 -2.901481 -1.570251 98.741653 0.000000 0.000000 0.000000 -2.141284 -2.830057 -2.784982 4.950318 -0.833485 -5.882823 22.698557 4.395371 -2.520129 -7.082475 -2.159533 -1.707096 -62.138390 -10.357351 7.712111 -51.493023 -7.149652 2.246595 15.538460 7.391949 -3.002301 -0.313710 3.559654 -1.551538 60.409683 -11.473329 4.765601 53.231529 5.798806 36.347252 -2.687929 -0.442668 -3.526683 -10.731398 4.589347 5.798614 23.092402 -4.242845 1.020413 -14.286242 -0.349118 2.808668 -19.602821 -9.077962 -9.265984 47.632793 2.428358 -9.452047 -18.354307 1.778515 -11.133404 
-97.613731 49.429771 23.073639 -2.159109 -1.658978 98.578133 0.000000 0.000000 0.000000 -2.396692 -3.356443 -2.447730 4.860183 -1.391843 -5.622657 23.277267 4.431298 -2.571116 -7.247235 -3.190251 -2.016208 -60.299835 -13.099818 8.571307 -51.255463 -7.643975 1.093910 15.851564 6.465270 -3.102056 -0.157799 2.763183 -1.761387 61.369980 -10.139668 4.152585 53.185101 5.968829 34.247826 -6.166452 -0.117408 -3.632653 -12.024484 3.766690 5.359880 22.606272 -4.426380 1.443344 -12.504627 -0.333972 3.098814 -17.370905 -10.281505 -10.520406 52.144138 1.473595 -9.494777 -17.475092 1.630847 -10.664684 
